<?xml version="1.0" encoding="utf-8"?>
<!-- Generator: Adobe Illustrator 23.0.1, SVG Export Plug-In . SVG Version: 6.00 Build 0)  -->
<svg version="1.1" xmlns="http://www.w3.org/2000/svg" xmlns:xlink="http://www.w3.org/1999/xlink" x="0px" y="0px"
	 viewBox="0 0 64 32" style="enable-background:new 0 0 64 32;" xml:space="preserve">
<style type="text/css">
	.st0{display:none;}
</style>
<g id="Слой_1" class="st0">
</g>
<g id="Слой_2">
	<g>
		<path d="M56.5,1.4c0.9,0.5,1.5,1.6,2,2.6c1,2.2,2.1,4.3,3.1,6.5c0.4,0.8,0.7,1.6,0.9,2.4c0.2,1.2-0.4,2.1-1.4,2.4
			c-1,0.3-2-0.2-2.6-1.3c-0.7-1.4-1.3-2.8-1.9-4.3c-0.2-0.5-0.4-1-0.7-1.5c-1.2,2.1-2.3,4.2-3.7,6.1c-0.8,1.2-2.9,3.7-3.5,4.4
			c-2.7,2.8-6.3,5.2-10.5,7.5c-3.5,1.9-7.2,3.2-11.1,3.7c-1.8,0.3-7.1,0.5-10,0.3c-4.7-0.3-8-1.2-12.2-3.2c-0.9-0.5-1.8-1-2.7-1.5
			c-0.3-0.2-0.6-0.5-0.6-0.9c0-0.7,0.5-1.1,1.2-0.9c0.2,0,0.3,0.1,0.5,0.2c4.1,2.5,8.5,3.7,13.2,3.7c2,0,7.3,0.5,14.5-1.4
			c4.8-1.3,8.8-3.9,12.5-7c1.7-1.4,4.7-4.8,5.7-6c0.6-0.7,2.4-3.7,2.9-4.8c-0.4,0.2-0.6,0.3-0.9,0.4c-1.9,0.9-3.8,1.8-5.8,2.6
			c-0.3,0.1-0.6,0.2-0.9,0.2c-0.9,0.2-1.6-0.3-1.9-1.1c-0.3-0.8-0.1-1.8,0.7-2.2c0.5-0.3,1.1-0.5,1.6-0.7c3.9-1.3,7.3-3.3,10.1-6.2
			C55.6,1.1,56.1,1.2,56.5,1.4z"/>
	</g>
</g>
</svg>
