<?xml version="1.0" encoding="utf-8"?>
<!-- Generator: Adobe Illustrator 23.0.1, SVG Export Plug-In . SVG Version: 6.00 Build 0)  -->
<svg version="1.1" xmlns="http://www.w3.org/2000/svg" xmlns:xlink="http://www.w3.org/1999/xlink" x="0px" y="0px"
	 viewBox="0 0 64 47" style="enable-background:new 0 0 64 47;" xml:space="preserve">
<style type="text/css">
	.st0{display:none;}
</style>
<g id="Слой_1" class="st0">
</g>
<g id="Слой_2">
	<g>
		<path d="M9.8,1.8c0.4,0.1,0.7,0.4,0.9,0.6c3,3,6,6,9,9c0.1,0.1,0.2,0.3,0.4,0.4c0.4,0.5,0.5,1,0,1.4c-0.5,0.4-1,0.4-1.5,0
			c-0.8-0.8-1.6-1.7-2.5-2.5c-1.4-1.3-2.8-2.5-4.3-3.7c-0.1,0-0.1,0.1-0.2,0.1c0.1,0.9,0.2,1.8,0.3,2.7c0.6,3.8,1,7.6,1.8,11.3
			c0.7,3.4,1.8,6.6,4.3,9.2c1.1,1.2,2.3,2.3,3.8,2.8c2.1,0.6,3.9,0,5.3-1.6c0.8-0.9,1.4-2.1,2-3.1c1-1.7,1.8-3.6,2.9-5.3
			c2.7-4.1,6.6-5.5,11.3-4.7c4.5,0.7,7.8,3.4,10.3,7.1c2.7,3.9,5.1,8.1,6.8,12.5c0.9,2.2,1.2,4.6,1.8,7c0,0.1,0.3,0.6-0.1,0.7
			c-0.4,0.1-0.6-0.5-0.6-0.7c-0.2-0.4-0.2-0.9-0.4-1.3c-0.7-2-1.3-4-2.3-5.9c-2.2-4.3-4.7-8.4-7.7-12.1c-2.1-2.6-4.6-4.4-8-4.9
			c-3.8-0.6-6.9,0.5-9,3.9c-1.2,2-2.2,4.2-3.4,6.3c-1,1.9-2.4,3.5-4.5,4.4c-2.6,1.1-5.2,1-7.6-0.4c-3.1-1.9-5.5-4.5-7-7.8
			c-1.9-4.3-2.8-8.8-3.4-13.4c-0.2-1.7-0.5-3.4-0.8-5.4C7,10,6.2,11.6,5.5,13.1c-0.3,0.7-0.7,1.4-1.1,2.1c-0.4,0.7-1.3,0.8-1.9,0.4
			c-0.7-0.4-0.9-1.1-0.6-1.7C3.5,10.5,5.3,7,7.1,3.7c0.4-0.7,1-1.5,1.9-1.9C9.2,1.7,9.6,1.7,9.8,1.8z"/>
	</g>
</g>
</svg>
