<?xml version="1.0" encoding="utf-8"?>
<!-- Generator: Adobe Illustrator 23.0.1, SVG Export Plug-In . SVG Version: 6.00 Build 0)  -->
<svg version="1.1" id="Слой_1" xmlns="http://www.w3.org/2000/svg" xmlns:xlink="http://www.w3.org/1999/xlink" x="0px" y="0px"
	 viewBox="0 0 24 24" style="enable-background:new 0 0 24 24;" xml:space="preserve">
<path d="M12,0C5.4,0,0,5.4,0,12s5.4,12,12,12s12-5.4,12-12S18.6,0,12,0z M15.9,12.5l-5,5c-0.3,0.2-0.6,0.3-0.9,0.3s-0.6-0.1-0.9-0.4
	c-0.5-0.5-0.5-1.3,0-1.8l4.1-4.1l-4-3.7C8.6,7.5,8.6,6.7,9.1,6.2s1.3-0.5,1.8-0.1l5,4.6c0.3,0.2,0.4,0.6,0.4,0.9
	C16.3,11.9,16.2,12.3,15.9,12.5z"/>
</svg>
